Tamara.Drewe.2010.DvDRip.x264.Feel-Free

Genre:Comedy
Language:English
IMDb:http://www.imdb.com/title/tt1486190/
Source:DVD


Format : MPEG-4
Format profile : Base Media
Codec ID : isom
File size : 1.08 GiB
Duration : 1h 51mn
Overall bit rate : 1 384 Kbps
Movie name : Tamara.Drewe.2010.DvDRip.x264.Feel-Free


Video
Format settings, CABAC : Yes
Format settings, ReFrames : 4 frames
Format settings, GOP : M=4, N=32
Codec ID : avc1
Codec ID/Info : Advanced Video Coding
Duration : 1h 51mn
Bit rate mode : Variable
Bit rate : 1 000 Kbps
Width : 716 pixels
Height : 304 pixels
Display aspect ratio : 2.35:1
Frame rate mode : Constant
Frame rate : 23.976 fps
Color space : YUV
Chroma subsampling : 4:2:0
Bit depth : 8 bits
Scan type : Progressive
Bits/(Pixel*Frame) : 0.192
Stream size : 794 MiB (72%)
Writing library : x264

Audio
ID : 2
Format : AAC
Format/Info : Advanced Audio Codec
Format version : Version 4
Format profile : LC
Codec ID : 40
Duration : 1h 51mn
Bit rate mode : Variable
Bit rate : 384 Kbps
Channel(s) : 6 channels
Channel positions : Front: L C R, Side: L R, LFE
Sampling rate : 48.0 KHz
Stream size : 306 MiB (28%)


Plot:
A young newspaper writer returns to her hometown in the English countryside, where her childhood home is being prepped for sale


Screenshots:

 
http://www.leetleech.org/images/44206529820387489871.png
 
http://www.leetleech.org/images/42478895601902917121.png